<svg width="44" height="44" viewBox="0 0 44 44" fill="none" xmlns="http://www.w3.org/2000/svg">
<rect width="44" height="44" rx="22" fill="#28292B"/>
<g clipPath="url(#clip0_876_4232)">
<path d="M31.1875 11.7344C31.4688 11.4531 31.9844 11.4531 32.2656 11.7344C32.5469 12.0156 32.5469 12.5312 32.2656 12.8125L23.0312 22L32.2656 31.2344C32.5469 31.5156 32.5469 32.0312 32.2656 32.3125C31.9844 32.5938 31.4688 32.5938 31.1875 32.3125L22 23.0781L12.7656 32.3125C12.4844 32.5938 11.9688 32.5938 11.6875 32.3125C11.4062 32.0312 11.4062 31.5156 11.6875 31.2344L20.9219 22L11.6875 12.8125C11.4062 12.5312 11.4062 12.0156 11.6875 11.7344C11.9688 11.4531 12.4844 11.4531 12.7656 11.7344L22 20.9688L31.1875 11.7344Z" fill="white"/>
</g>
<defs>
<clipPath id="clip0_876_4232">
<rect width="24" height="24" fill="white" transform="translate(10 10)"/>
</clipPath>
</defs>
</svg>
