<svg width="44" height="44" viewBox="0 0 44 44" fill="none" xmlns="http://www.w3.org/2000/svg">
<rect width="44" height="44" rx="22" fill="white"/>
<g clipPath="url(#clip0_442_15524)">
<path d="M13.75 13C13.2812 13.0312 13.0312 13.2812 13 13.75V18.25C13.0312 18.7188 13.2812 18.9688 13.75 19H18.25C18.7188 18.9688 18.9688 18.7188 19 18.25V13.75C18.9688 13.2812 18.7188 13.0312 18.25 13H13.75ZM11.5 13.75C11.5312 13.125 11.75 12.5938 12.1562 12.1562C12.5938 11.75 13.125 11.5312 13.75 11.5H18.25C18.875 11.5312 19.4062 11.75 19.8438 12.1562C20.25 12.5938 20.4688 13.125 20.5 13.75V18.25C20.4688 18.875 20.25 19.4062 19.8438 19.8438C19.4062 20.25 18.875 20.4688 18.25 20.5H13.75C13.125 20.4688 12.5938 20.25 12.1562 19.8438C11.75 19.4062 11.5312 18.875 11.5 18.25V13.75ZM13.75 25C13.2812 25.0312 13.0312 25.2812 13 25.75V30.25C13.0312 30.7188 13.2812 30.9688 13.75 31H18.25C18.7188 30.9688 18.9688 30.7188 19 30.25V25.75C18.9688 25.2812 18.7188 25.0312 18.25 25H13.75ZM11.5 25.75C11.5312 25.125 11.75 24.5938 12.1562 24.1562C12.5938 23.75 13.125 23.5312 13.75 23.5H18.25C18.875 23.5312 19.4062 23.75 19.8438 24.1562C20.25 24.5938 20.4688 25.125 20.5 25.75V30.25C20.4688 30.875 20.25 31.4062 19.8438 31.8438C19.4062 32.25 18.875 32.4688 18.25 32.5H13.75C13.125 32.4688 12.5938 32.25 12.1562 31.8438C11.75 31.4062 11.5312 30.875 11.5 30.25V25.75ZM30.25 13H25.75H30.25H25.75C25.2812 13.0312 25.0312 13.2812 25 13.75V18.25C25.0312 18.7188 25.2812 18.9688 25.75 19H30.25C30.7188 18.9688 30.9688 18.7188 31 18.25V13.75C30.9688 13.2812 30.7188 13.0312 30.25 13ZM25.75 11.5H30.25H25.75H30.25C30.875 11.5312 31.4062 11.75 31.8438 12.1562C32.25 12.5938 32.4688 13.125 32.5 13.75V18.25C32.4688 18.875 32.25 19.4062 31.8438 19.8438C31.4062 20.25 30.875 20.4688 30.25 20.5H25.75C25.125 20.4688 24.5938 20.25 24.1562 19.8438C23.75 19.4062 23.5312 18.875 23.5 18.25V13.75C23.5312 13.125 23.75 12.5938 24.1562 12.1562C24.5938 11.75 25.125 11.5312 25.75 11.5ZM25.75 25C25.2812 25.0312 25.0312 25.2812 25 25.75V30.25C25.0312 30.7188 25.2812 30.9688 25.75 31H30.25C30.7188 30.9688 30.9688 30.7188 31 30.25V25.75C30.9688 25.2812 30.7188 25.0312 30.25 25H25.75ZM23.5 25.75C23.5312 25.125 23.75 24.5938 24.1562 24.1562C24.5938 23.75 25.125 23.5312 25.75 23.5H30.25C30.875 23.5312 31.4062 23.75 31.8438 24.1562C32.25 24.5938 32.4688 25.125 32.5 25.75V30.25C32.4688 30.875 32.25 31.4062 31.8438 31.8438C31.4062 32.25 30.875 32.4688 30.25 32.5H25.75C25.125 32.4688 24.5938 32.25 24.1562 31.8438C23.75 31.4062 23.5312 30.875 23.5 30.25V25.75Z" fill="#010101"/>
</g>
<defs>
<clipPath id="clip0_442_15524">
<rect width="24" height="24" fill="white" transform="translate(10 10)"/>
</clipPath>
</defs>
</svg>
