<svg width="164" height="13" viewBox="0 0 164 13" fill="none" xmlns="http://www.w3.org/2000/svg">
<g clip-path="url(#clip0_456_28)">
<path d="M0 12.3506H2.59099L6.75576 4.65298L10.9205 12.3506H13.5115L6.75576 -0.0839844L0 12.3506Z" fill="white"/>
<path d="M30.0171 5.45546C29.9595 5.68467 29.8827 5.93298 29.7292 6.16218C29.5949 6.35319 29.4413 6.5442 29.2494 6.7352C29.0575 6.86891 28.8272 7.02171 28.5776 7.11722C28.3473 7.21272 28.0978 7.25092 27.8675 7.25092H24.4129V2.87687H28.0019C28.2322 2.87687 28.4817 2.91507 28.712 3.01057C28.9423 3.10608 29.1342 3.23978 29.3262 3.39259C29.5181 3.58359 29.6524 3.7746 29.806 3.96561C29.9019 4.19481 29.9979 4.38582 30.0363 4.67233C30.0363 4.80604 30.0939 4.90154 30.0939 5.05434C30.0747 5.18805 30.0747 5.32175 30.0171 5.45546ZM31.8404 2.95327C31.6101 2.47575 31.2646 2.09374 30.8808 1.76903C30.4969 1.44432 30.0747 1.15781 29.5949 0.966801C29.115 0.775794 28.5968 0.680291 28.117 0.64209H27.9251H22.129V12.3699H24.4321V9.4666H27.8867C28.4049 9.4666 28.8847 9.3711 29.3645 9.23739C29.8444 9.04639 30.2666 8.81718 30.708 8.47337C31.0919 8.14865 31.4181 7.76664 31.706 7.32733C31.9363 6.90711 32.1283 6.42959 32.2242 5.89478C32.2626 5.66557 32.3202 5.37906 32.3202 5.13075C32.3202 4.90154 32.3202 4.61503 32.2626 4.36672C32.2626 3.851 32.0899 3.37348 31.8404 2.95327Z" fill="white"/>
<path d="M49.3248 5.45546C49.2864 5.68467 49.1904 5.93298 49.0369 6.16218C48.9025 6.35319 48.749 6.5442 48.5571 6.7352C48.3651 6.86891 48.1348 7.02171 47.8853 7.11722C47.655 7.21272 47.4055 7.25092 47.1752 7.25092H43.7205V2.87687H47.3095C47.5398 2.87687 47.7894 2.91507 48.0197 3.01057C48.25 3.10608 48.4419 3.23978 48.6338 3.39259C48.8257 3.58359 48.9601 3.7746 49.1136 3.96561C49.2096 4.19481 49.3056 4.38582 49.3439 4.67233C49.3439 4.80604 49.3823 4.90154 49.3823 5.05434C49.3631 5.18805 49.3631 5.32175 49.3248 5.45546ZM51.1288 2.95327C50.8985 2.47575 50.5531 2.09374 50.1692 1.76903C49.7854 1.44432 49.3631 1.15781 48.8833 0.966801C48.4035 0.775794 47.8853 0.680291 47.4055 0.64209H47.2136H41.4174V12.3699H43.7205V9.4666H47.1752C47.6934 9.4666 48.1732 9.3711 48.653 9.23739C49.1328 9.04639 49.5551 8.81718 49.9965 8.47337C50.3803 8.14865 50.7066 7.76664 50.9945 7.32733C51.2248 6.90711 51.4167 6.42959 51.5127 5.89478C51.5703 5.66557 51.6087 5.37906 51.6087 5.13075C51.6087 4.90154 51.6087 4.61503 51.5703 4.36672C51.5703 3.851 51.3784 3.37348 51.1288 2.95327Z" fill="white"/>
<path d="M60.4756 2.89565H64.7747V12.3505H67.1354V2.89565H71.3961V0.584473H60.4756V2.89565Z" fill="white"/>
<path d="M88.9189 8.7404C89.0149 8.7022 89.1108 8.6067 89.2068 8.5494C89.2452 8.5112 89.3027 8.5112 89.3027 8.45389C89.6866 8.12918 90.0129 7.74717 90.3008 7.30785C90.5311 6.88764 90.723 6.41012 90.819 5.8753C90.8573 5.64609 90.9149 5.35958 90.9149 5.11128C90.9149 4.88207 90.9149 4.59556 90.8765 4.34725C90.7806 3.83153 90.6462 3.35401 90.3967 2.9147C90.1664 2.49448 89.8209 2.05517 89.4371 1.73046C89.0532 1.40575 88.631 1.11924 88.1512 0.928229C87.6714 0.737223 87.1532 0.641717 86.6734 0.603516H86.4815H86.4431H80.7045V12.3313H83.0076V2.8956H86.4623H86.5582C86.7885 2.8956 87.038 2.9338 87.2683 3.0293C87.4987 3.12481 87.6906 3.25851 87.8825 3.41132C88.0744 3.60232 88.2088 3.79333 88.3623 3.98434C88.4583 4.17534 88.5542 4.46185 88.5926 4.69106C88.5926 4.82477 88.6502 4.92027 88.6502 5.07308C88.6502 5.22588 88.6502 5.30228 88.5926 5.45509C88.5542 5.6843 88.4583 5.93261 88.3047 6.16181C88.2088 6.29552 88.1128 6.44832 88.0169 6.54383C87.9785 6.58203 87.9209 6.63933 87.8249 6.67753C87.7865 6.71573 87.7865 6.71573 87.729 6.71573C87.633 6.81123 87.537 6.84944 87.4411 6.90674C87.3451 6.94494 87.2492 7.00224 87.1532 7.00224H87.1148C87.0188 7.04044 86.8845 7.04044 86.7885 7.09774C86.6926 7.09774 86.5966 7.13595 86.4623 7.13595H84.639L88.3815 12.3122H91.0685L88.631 8.93141C88.727 8.83591 88.8229 8.77861 88.9189 8.7404Z" fill="white"/>
<path d="M109.321 7.9385C109.129 8.41601 108.841 8.83623 108.457 9.18004C108.073 9.56205 107.689 9.84856 107.209 10.0396C106.73 10.2306 106.25 10.3261 105.732 10.3261C105.213 10.3261 104.734 10.2306 104.254 10.0396C103.774 9.84856 103.352 9.56205 103.006 9.18004C102.622 8.79803 102.334 8.41601 102.143 7.9385C101.951 7.46098 101.855 6.98346 101.855 6.46774C101.855 5.95203 101.951 5.47451 102.143 4.99699C102.334 4.51947 102.622 4.09926 103.006 3.75545C103.39 3.37343 103.774 3.14422 104.254 2.89592C104.734 2.70491 105.213 2.60941 105.732 2.60941C106.25 2.60941 106.73 2.70491 107.209 2.89592C107.689 3.08692 108.111 3.37343 108.457 3.75545C108.841 4.13746 109.071 4.51947 109.321 4.99699C109.512 5.47451 109.608 5.95203 109.608 6.46774C109.608 6.98346 109.512 7.49918 109.321 7.9385ZM110.088 2.15099C109.512 1.57797 108.841 1.15775 108.073 0.813943C107.305 0.527433 106.538 0.336426 105.732 0.336426C104.925 0.336426 104.158 0.470131 103.39 0.813943C102.622 1.13865 101.951 1.57797 101.375 2.15099C100.799 2.72401 100.377 3.39253 100.031 4.13746C99.7435 4.90149 99.5516 5.64641 99.5516 6.46774C99.5516 7.28907 99.6859 8.034 100.031 8.79803C100.358 9.56205 100.799 10.2306 101.375 10.7845C101.951 11.3575 102.622 11.7777 103.39 12.1215C104.158 12.4081 104.925 12.5991 105.732 12.5991C106.538 12.5991 107.305 12.4654 108.073 12.1215C108.841 11.7968 109.512 11.3575 110.088 10.7845C110.664 10.2115 111.086 9.54295 111.432 8.79803C111.72 8.034 111.912 7.28907 111.912 6.46774C111.912 5.64641 111.758 4.90149 111.432 4.13746C111.105 3.37343 110.645 2.70491 110.088 2.15099Z" fill="white"/>
<path d="M129.952 7.8812L121.086 0.0117188V12.3508H123.446V5.1307L132.256 13.0002V0.584739H129.952V7.8812Z" fill="white"/>
<path d="M144.308 0.584473H142.005V12.3123H144.308V0.584473Z" fill="white"/>
<path d="M160.161 6.02817L163.808 0.584473H161.025L156.189 7.78543V0.584473H153.886V12.3505H155.939L158.722 8.16744L161.313 12.3505H164L160.161 6.02817Z" fill="white"/>
</g>
<defs>
<clipPath id="clip0_456_28">
<rect width="164" height="13" fill="white"/>
</clipPath>
</defs>
</svg>
