<?xml version="1.0" encoding="UTF-8"?>
<svg id="Layer_1" data-name="Layer 1" xmlns="http://www.w3.org/2000/svg" width=".6in" height=".6in" viewBox="0 0 43 43">
  <defs>
    <style>
      .cls-1 {
        fill: #fff;
      }
    </style>
  </defs>
  <path class="cls-1" d="m2.75,32l4.86-6.69c-.58-2.14-.68-4.38-.27-6.56.41-2.17,1.33-4.21,2.69-5.98,1.33-1.77,3.06-3.19,5.07-4.18,1.97-.99,4.18-1.5,6.39-1.5s4.42.51,6.39,1.5c1.97.99,3.71,2.41,5.07,4.18,1.33,1.77,2.24,3.81,2.69,5.98.41,2.17.34,4.42-.27,6.56l4.86,6.69c5.82-10.33,2.18-23.41-8.16-29.22C21.7-3.06,8.57.61,2.75,10.94c-1.8,3.19-2.75,6.83-2.75,10.53s.95,7.3,2.75,10.53Z"/>
  <path class="cls-1" d="m1,43h9.19l11.33-16.04,11.33,16.04h9.16L21.52,14,1,43Z"/>
  <path class="cls-1" d="m21.5,35l-5.5,7.32c3.62.91,7.38.91,11,0l-5.5-7.32Z"/>
</svg>