<svg width="32" height="32" viewBox="0 0 32 32" fill="none" xmlns="http://www.w3.org/2000/svg">
<rect width="32" height="32" rx="4" fill="#1ED612"/>
<path d="M22.4488 5L18.3116 6.18298C18.0252 6.83546 17.3788 8.30638 17.0852 8.97021C16.7915 9.63404 16.7382 10.3986 16.7483 10.6979C16.7944 12.6199 16.8917 16.64 16.9124 17.3447C16.9331 18.0494 17.2061 18.7333 17.34 18.9872L20.445 25.2809L25.3077 27C23.4824 23.3035 19.7782 15.8 19.564 15.3574C19.3498 14.9149 19.7367 14.7986 19.957 14.7957L21.8096 14.7617L24.1416 19.4511L29 21.1574C27.6699 18.4851 24.9699 13.0613 24.811 12.7447C24.6521 12.4281 24.287 12.3489 24.1244 12.3489C22.8965 12.3745 20.3249 12.4255 19.862 12.4255C19.399 12.4255 19.3985 12.0908 19.456 11.9234L22.4488 5Z" fill="#010101"/>
<path d="M10.5512 5L14.6884 6.18298C14.9748 6.83546 15.6212 8.30638 15.9148 8.97021C16.2085 9.63404 16.2618 10.3986 16.2517 10.6979C16.2056 12.6199 16.1083 16.64 16.0876 17.3447C16.0669 18.0494 15.7939 18.7333 15.66 18.9872L12.555 25.2809L7.69235 27C9.51765 23.3035 13.2218 15.8 13.436 15.3574C13.6502 14.9149 13.2633 14.7986 13.043 14.7957L11.1904 14.7617L8.85835 19.4511L4 21.1574C5.33011 18.4851 8.03006 13.0613 8.18898 12.7447C8.3479 12.4281 8.71296 12.3489 8.87563 12.3489C10.1035 12.3745 12.6751 12.4255 13.138 12.4255C13.601 12.4255 13.6015 12.0908 13.544 11.9234L10.5512 5Z" fill="#010101"/>
</svg>
