<svg width="200" height="20" viewBox="0 0 200 20" fill="none" xmlns="http://www.w3.org/2000/svg">
<g clipPath="url(#clip0_296_2951)">
<path d="M169.997 0.464844H173.705V17.2605C173.705 18.7708 172.953 19.4999 171.45 19.4999H169.371C168.544 19.4999 167.868 19.2134 167.392 18.5885L153.713 3.87605V19.4999H149.98V2.70426C149.98 1.19396 150.732 0.464844 152.235 0.464844H154.314C155.141 0.464844 155.818 0.751281 156.294 1.37623L169.997 16.1408V0.464844Z" fill="white"/>
<path d="M146.214 0.464844V19.4999H142.03V0.464844H146.214Z" fill="white"/>
<path d="M133.805 19.4999H120.653C117.697 19.4999 116.219 18.1458 116.219 15.3856V0.464844H120.402V14.3961C120.402 15.646 121.054 16.2449 122.306 16.2449H132.152C133.43 16.2449 134.056 15.646 134.056 14.3961V0.464844H138.24V15.3856C138.24 18.1458 136.787 19.4999 133.805 19.4999Z" fill="white"/>
<path d="M32.8583 0.452148C33.685 0.452148 34.2862 0.738585 34.6119 1.36354L43.6807 15.8416L52.7496 1.36354C53.1004 0.738585 53.7015 0.452148 54.5032 0.452148H56.307C57.81 0.452148 58.5867 1.18126 58.5867 2.69156V19.4872H54.854V5.21742L46.3614 18.5758C46.0106 19.1747 45.4595 19.4872 44.7829 19.4872H42.6034C41.9021 19.4872 41.3759 19.1747 41.0002 18.5758L32.5326 5.24346V19.4872H28.7998V2.69156C28.7998 1.18126 29.5513 0.452148 31.0545 0.452148H32.8583Z" fill="white"/>
<path d="M25.8538 0.634426L15.6074 9.74832L26.3547 19.3049V19.4872H21.3695L13.0772 12.0398L4.91021 19.4872H0V19.3049L10.4968 9.93061L0.0250521 0.634426V0.452148H5.01042L13.0271 7.63912L20.9186 0.452148H25.8538V0.634426Z" fill="white"/>
<path fillRule="evenodd" clipRule="evenodd" d="M94.9844 3.84651H104.762C106.199 3.84651 106.917 4.39095 106.917 5.79719V14.1564C106.917 15.5626 106.212 16.2397 104.775 16.2397H95.023C93.5867 16.2397 92.8812 15.5366 92.8812 14.1564V5.79719C92.8812 4.39095 93.548 3.84651 94.9844 3.84651ZM93.6371 19.4948H106.161C106.167 19.4948 106.172 19.4948 106.177 19.4948H113.712V16.2684H110.991C111.081 15.8414 111.126 15.3718 111.126 14.8595V5.09406C111.126 1.99517 109.488 0.45874 106.161 0.45874H93.6371C90.3107 0.45874 88.6729 1.99517 88.6729 5.09406V14.8595C88.6729 17.9584 90.3107 19.4948 93.6371 19.4948Z" fill="white"/>
<path fillRule="evenodd" clipRule="evenodd" d="M66.9069 0.45874H80.2127L80.2264 0.458745C82.8964 0.458745 84.3811 1.58475 84.6434 3.81758H80.2127L66.9069 3.8176L62.3305 3.81758C62.5889 1.58475 64.0531 0.458745 66.7233 0.458745L66.9069 0.45874ZM62.2891 12.9344V19.4938H66.4728V13.062H80.5019V19.4938H84.6857V12.9344H84.686V9.70792H62.2891V12.9344Z" fill="white"/>
<path fillRule="evenodd" clipRule="evenodd" d="M182.145 0.471191H195.451L195.464 0.4712C198.134 0.4712 199.619 1.5972 199.882 3.83003H195.451L182.145 3.83005L177.569 3.83003C177.827 1.5972 179.291 0.4712 181.962 0.4712L182.145 0.471191ZM177.527 12.9468V9.72038H199.924V12.9468V19.5062H195.74V13.0744H181.711V19.5062H177.527V12.9468Z" fill="white"/>
</g>
<defs>
<clipPath id="clip0_296_2951">
<rect width="200" height="19.0955" fill="white" transform="translate(0 0.452148)"/>
</clipPath>
</defs>
</svg>
