{
	"asset":{
		"generator":"Khronos glTF Blender I/O v3.6.27",
		"version":"2.0"
	},
	"scene":0,
	"scenes":[
		{
			"name":"Scene",
			"nodes":[
				9
			]
		}
	],
	"nodes":[
		{
			"mesh":0,
			"name":"card_back",
			"rotation":[
				0,
				0,
				1,
				7.549789415861596e-08
			],
			"scale":[
				0.999997615814209,
				0.9999975562095642,
				1
			],
			"translation":[
				0,
				-0.008496532216668129,
				0
			]
		},
		{
			"mesh":1,
			"name":"card_front",
			"translation":[
				0,
				0.008739836513996124,
				0
			]
		},
		{
			"mesh":2,
			"name":"case"
		},
		{
			"mesh":3,
			"name":"case_logo_left",
			"rotation":[
				-0.7071065306663513,
				0,
				0,
				0.7071070671081543
			],
			"scale":[
				1.8350001573562622,
				1.8349993228912354,
				1.8349993228912354
			],
			"translation":[
				-0.07636640965938568,
				0.0004829559475183487,
				-0.08496841788291931
			]
		},
		{
			"mesh":4,
			"name":"case_logo_right",
			"rotation":[
				0,
				0.7071068286895752,
				-0.7071068286895752,
				2.2476456251752097e-08
			],
			"scale":[
				1.834999442100525,
				1.8349833488464355,
				1.834981918334961
			],
			"translation":[
				0.07616135478019714,
				-0.0008980436250567436,
				-0.08496841788291931
			]
		},
		{
			"children":[
				0,
				1,
				2,
				3,
				4
			],
			"name":"Geom"
		},
		{
			"children":[
				5
			],
			"name":"PL_case"
		},
		{
			"children":[
				6
			],
			"name":"Geom.001"
		},
		{
			"name":"Materials"
		},
		{
			"children":[
				7,
				8
			],
			"name":"PL_case.001",
			"rotation":[
				0.7071068286895752,
				0,
				0,
				0.7071068286895752
			]
		}
	],
	"materials":[
		{
			"doubleSided":true,
			"name":"Material_1",
			"normalTexture":{
				"index":0
			},
			"pbrMetallicRoughness":{
				"baseColorTexture":{
					"index":1
				},
				"metallicFactor":0,
				"roughnessFactor":0.10000000149011612
			}
		},
		{
			"doubleSided":true,
			"name":"Material_0",
			"normalTexture":{
				"index":2
			},
			"pbrMetallicRoughness":{
				"baseColorTexture":{
					"index":3
				},
				"metallicFactor":0,
				"roughnessFactor":0.10000000149011612
			}
		},
		{
			"doubleSided":true,
			"name":"Node",
			"pbrMetallicRoughness":{
				"baseColorFactor":[
					1,
					0.7686274647712708,
					0.14509804546833038,
					1
				],
				"roughnessFactor":0
			}
		},
		{
			"doubleSided":true,
			"name":"STL_material",
			"pbrMetallicRoughness":{
				"baseColorFactor":[
					0.5529412031173706,
					0.35686275362968445,
					0.10196078568696976,
					1
				],
				"metallicFactor":0.5
			}
		}
	],
	"meshes":[
		{
			"name":"card_back",
			"primitives":[
				{
					"attributes":{
						"POSITION":0,
						"NORMAL":1,
						"TEXCOORD_0":2
					},
					"indices":3,
					"material":0
				}
			]
		},
		{
			"name":"card_front",
			"primitives":[
				{
					"attributes":{
						"POSITION":4,
						"NORMAL":5,
						"TEXCOORD_0":6
					},
					"indices":3,
					"material":1
				}
			]
		},
		{
			"name":"case",
			"primitives":[
				{
					"attributes":{
						"POSITION":7,
						"NORMAL":8
					},
					"indices":9,
					"material":2
				}
			]
		},
		{
			"name":"case_logo_left",
			"primitives":[
				{
					"attributes":{
						"POSITION":10,
						"NORMAL":11
					},
					"indices":12,
					"material":3
				}
			]
		},
		{
			"name":"case_logo_right",
			"primitives":[
				{
					"attributes":{
						"POSITION":13,
						"NORMAL":14
					},
					"indices":12,
					"material":3
				}
			]
		}
	],
	"textures":[
		{
			"sampler":0,
			"source":0
		},
		{
			"sampler":0,
			"source":1
		},
		{
			"sampler":0,
			"source":2
		},
		{
			"sampler":0,
			"source":3
		}
	],
	"images":[
		{
			"mimeType":"image/png",
			"name":"card_back_normal",
			"uri":"card-layer-2.png"
		},
		{
			"mimeType":"image/png",
			"name":"card_back",
			"uri":"card-layer-1.png"
		},
		{
			"mimeType":"image/png",
			"name":"card_front_normal",
			"uri":"normal-map.png"
		},
		{
			"mimeType":"image/png",
			"name":"card_front",
			"uri":"card-diffuse.png"
		}
	],
	"accessors":[
		{
			"bufferView":0,
			"componentType":5126,
			"count":201,
			"max":[
				0.07520001381635666,
				0,
				0.12099999934434891
			],
			"min":[
				-0.07520001381635666,
				0,
				-0.12099999934434891
			],
			"type":"VEC3"
		},
		{
			"bufferView":1,
			"componentType":5126,
			"count":201,
			"type":"VEC3"
		},
		{
			"bufferView":2,
			"componentType":5126,
			"count":201,
			"type":"VEC2"
		},
		{
			"bufferView":3,
			"componentType":5123,
			"count":960,
			"type":"SCALAR"
		},
		{
			"bufferView":4,
			"componentType":5126,
			"count":201,
			"max":[
				0.07500000298023224,
				0,
				0.12099999934434891
			],
			"min":[
				-0.07500000298023224,
				0,
				-0.12099999934434891
			],
			"type":"VEC3"
		},
		{
			"bufferView":5,
			"componentType":5126,
			"count":201,
			"type":"VEC3"
		},
		{
			"bufferView":6,
			"componentType":5126,
			"count":201,
			"type":"VEC2"
		},
		{
			"bufferView":7,
			"componentType":5126,
			"count":3456,
			"max":[
				0.07607772946357727,
				0.009477322921156883,
				0.12196789681911469
			],
			"min":[
				-0.07607772946357727,
				-0.009477322921156883,
				-0.12196789681911469
			],
			"type":"VEC3"
		},
		{
			"bufferView":8,
			"componentType":5126,
			"count":3456,
			"type":"VEC3"
		},
		{
			"bufferView":9,
			"componentType":5123,
			"count":20736,
			"type":"SCALAR"
		},
		{
			"bufferView":10,
			"componentType":5126,
			"count":1266,
			"max":[
				1.6825247862589253e-19,
				0.004634474404156208,
				0.0027477715630084276
			],
			"min":[
				-8.871428036627549e-09,
				-0.0032272341195493937,
				-0.003422028385102749
			],
			"type":"VEC3"
		},
		{
			"bufferView":11,
			"componentType":5126,
			"count":1266,
			"type":"VEC3"
		},
		{
			"bufferView":12,
			"componentType":5123,
			"count":1266,
			"type":"SCALAR"
		},
		{
			"bufferView":13,
			"componentType":5126,
			"count":1266,
			"max":[
				1.6825247862589253e-19,
				0.004634474404156208,
				0.0027477715630084276
			],
			"min":[
				-8.871428036627549e-09,
				-0.0032272341195493937,
				-0.003422028385102749
			],
			"type":"VEC3"
		},
		{
			"bufferView":14,
			"componentType":5126,
			"count":1266,
			"type":"VEC3"
		}
	],
	"bufferViews":[
		{
			"buffer":0,
			"byteLength":2412,
			"byteOffset":0,
			"target":34962
		},
		{
			"buffer":0,
			"byteLength":2412,
			"byteOffset":2412,
			"target":34962
		},
		{
			"buffer":0,
			"byteLength":1608,
			"byteOffset":4824,
			"target":34962
		},
		{
			"buffer":0,
			"byteLength":1920,
			"byteOffset":6432,
			"target":34963
		},
		{
			"buffer":0,
			"byteLength":2412,
			"byteOffset":8352,
			"target":34962
		},
		{
			"buffer":0,
			"byteLength":2412,
			"byteOffset":10764,
			"target":34962
		},
		{
			"buffer":0,
			"byteLength":1608,
			"byteOffset":13176,
			"target":34962
		},
		{
			"buffer":0,
			"byteLength":41472,
			"byteOffset":14784,
			"target":34962
		},
		{
			"buffer":0,
			"byteLength":41472,
			"byteOffset":56256,
			"target":34962
		},
		{
			"buffer":0,
			"byteLength":41472,
			"byteOffset":97728,
			"target":34963
		},
		{
			"buffer":0,
			"byteLength":15192,
			"byteOffset":139200,
			"target":34962
		},
		{
			"buffer":0,
			"byteLength":15192,
			"byteOffset":154392,
			"target":34962
		},
		{
			"buffer":0,
			"byteLength":2532,
			"byteOffset":169584,
			"target":34963
		},
		{
			"buffer":0,
			"byteLength":15192,
			"byteOffset":172116,
			"target":34962
		},
		{
			"buffer":0,
			"byteLength":15192,
			"byteOffset":187308,
			"target":34962
		}
	],
	"samplers":[
		{
			"magFilter":9729,
			"minFilter":9987
		}
	],
	"buffers":[
		{
			"byteLength":202500,
			"uri":"card-geometry.bin"
		}
	]
}
